<?xml version="1.0" standalone="no"?>
<!DOCTYPE svg PUBLIC "-//W3C//DTD SVG 20010904//EN" "http://www.w3.org/TR/2001/REC-SVG-20010904/DTD/svg10.dtd">
<svg version="1.0" 
	xmlns="http://www.w3.org/2000/svg" width="925.000000pt" height="462.000000pt" viewBox="0 0 925.000000 462.000000" preserveAspectRatio="xMidYMid meet">
	<g transform="translate(0.000000,462.000000) scale(0.100000,-0.100000)" fill="#442dd6" stroke="none">
		<path d="M1410 3963 c-80 -42 -115 -102 -115 -197 0 -64 4 -80 47 -166 62
-126 214 -396 437 -779 101 -172 194 -343 207 -380 43 -120 26 -227 -49 -301
-76 -77 -157 -102 -242 -75 -27 8 -51 15 -52 15 -2 0 -3 -8 -3 -18 0 -48 -34
-127 -73 -169 -81 -88 -213 -119 -314 -73 -77 35 -121 93 -326 437 -134 224
-208 339 -229 354 -74 53 -188 28 -241 -53 -38 -60 -36 -116 14 -301 100 -374
193 -634 299 -842 74 -146 119 -211 247 -359 58 -66 109 -132 114 -145 5 -13
12 -64 16 -113 5 -78 9 -91 30 -108 51 -40 249 -60 588 -60 342 0 497 21 551
75 23 23 24 31 24 147 l0 123 81 89 c146 164 211 279 337 606 174 451 278 634
478 841 111 115 130 187 64 243 -46 38 -92 49 -194 44 -204 -10 -372 -120
-536 -351 -58 -80 -98 -124 -175 -187 -258 -215 -420 -424 -463 -600 -6 -25
-14 -84 -18 -132 l-7 -88 -37 0 c-37 0 -39 2 -45 39 -10 57 13 196 46 281 69
180 248 394 497 594 70 57 76 66 72 114 -5 59 -109 271 -335 677 -201 361
-377 652 -458 758 -33 43 -87 74 -144 83 -30 4 -49 0 -93 -23z"/>
		<path d="M1330 3121 c-78 -42 -127 -125 -118 -199 4 -25 67 -141 192 -352 103
-173 199 -330 214 -349 111 -138 314 -60 300 115 -6 69 -53 163 -238 479 -163
277 -203 325 -272 325 -24 -1 -59 -9 -78 -19z"/>
		<path d="M909 2872 c-74 -39 -113 -95 -113 -165 0 -50 9 -67 194 -377 106
-179 206 -342 223 -363 92 -118 258 -97 319 41 28 63 19 125 -31 217 -120 217
-353 595 -386 624 -69 60 -124 66 -206 23z"/>
		<path d="M7707 2804 c-4 -4 -7 -274 -7 -601 l0 -594 108 3 107 3 0 595 0 595
-101 3 c-55 1 -103 0 -107 -4z"/>
		<path d="M8110 2210 l0 -601 103 3 102 3 3 140 3 140 40 45 c22 25 42 41 45
35 2 -5 51 -89 107 -185 l103 -175 113 -3 c63 -1 118 1 123 6 6 6 -21 56 -64
123 -128 198 -238 376 -238 385 0 5 65 79 144 164 80 85 141 159 137 163 -4 4
-61 6 -126 5 l-118 -3 -81 -90 c-45 -49 -105 -117 -133 -150 l-53 -60 0 316
c0 231 -3 318 -12 327 -8 8 -46 12 -105 12 l-93 0 0 -600z"/>
		<path d="M3544 2777 c-3 -8 -4 -52 -2 -98 l3 -84 168 -3 168 -2 -1 -468 c0
-257 0 -477 0 -490 0 -22 1 -23 113 -20 l112 3 3 487 2 488 163 2 162 3 3 98
3 97 -446 0 c-362 0 -447 -2 -451 -13z"/>
		<path d="M5940 2690 l0 -100 165 0 165 0 0 -490 0 -491 113 3 112 3 3 487 2
488 163 2 162 3 0 95 0 95 -442 3 -443 2 0 -100z"/>
		<path d="M4671 2469 c-76 -13 -162 -54 -204 -97 -30 -31 -87 -126 -87 -145 0
-3 33 -10 73 -17 39 -6 84 -13 99 -16 23 -5 31 1 53 36 30 48 74 70 137 70 82
0 145 -51 155 -127 l5 -41 -98 -7 c-250 -18 -367 -65 -419 -168 -63 -126 -9
-274 124 -339 39 -20 62 -23 151 -23 112 0 160 15 204 64 27 30 36 26 36 -14
l0 -36 103 3 102 3 -3 300 c-4 322 -9 369 -48 428 -65 99 -227 152 -383 126z
m224 -489 c4 -6 1 -34 -5 -62 -26 -106 -138 -175 -239 -148 -104 28 -99 156 6
191 32 10 134 24 205 28 15 0 30 -4 33 -9z"/>
		<path d="M7076 2469 c-115 -17 -206 -75 -256 -163 -45 -77 -42 -82 43 -96 39
-6 83 -13 97 -16 21 -3 29 2 47 35 71 125 293 77 293 -63 0 -31 -3 -36 -22
-36 -53 -1 -227 -20 -273 -31 -60 -14 -141 -52 -173 -82 -93 -86 -86 -268 13
-356 102 -90 311 -96 416 -12 l38 31 3 -33 3 -32 103 -3 102 -3 0 278 c0 153
-5 307 -11 343 -12 75 -46 139 -93 175 -71 54 -213 82 -330 64z m224 -509 c0
-63 -51 -144 -110 -175 -39 -20 -111 -26 -150 -12 -25 8 -40 23 -53 50 -18 36
-18 38 0 74 24 49 72 72 169 82 144 15 144 15 144 -19z"/>
		<path d="M5186 2438 c4 -13 71 -203 150 -423 79 -220 144 -409 144 -420 0 -11
-13 -42 -28 -70 -34 -64 -78 -88 -144 -81 l-47 5 -7 -47 c-4 -26 -8 -65 -8
-86 -1 -48 11 -54 129 -55 58 0 91 5 120 18 84 38 155 149 230 361 21 58 93
257 161 442 68 185 124 346 124 357 0 20 -6 21 -102 21 l-103 0 -93 -273 c-52
-149 -97 -280 -101 -291 -5 -12 -36 66 -100 250 -52 148 -100 279 -108 292
-13 21 -20 22 -119 22 -105 0 -105 0 -98 -22z"/>
	</g>
</svg>