<?xml version="1.0" standalone="no"?>
<!DOCTYPE svg PUBLIC "-//W3C//DTD SVG 20010904//EN" "http://www.w3.org/TR/2001/REC-SVG-20010904/DTD/svg10.dtd">
<svg version="1.0" 
	xmlns="http://www.w3.org/2000/svg" width="347.000000pt" height="347.000000pt" viewBox="0 0 347.000000 347.000000" preserveAspectRatio="xMidYMid meet">
	<g transform="translate(0.000000,347.000000) scale(0.100000,-0.100000)" fill="#442dd6" stroke="none">
		<path d="M1430 3419 c-83 -35 -140 -121 -140 -212 0 -47 9 -73 64 -183 73
-148 205 -383 431 -769 87 -148 172 -301 188 -340 41 -97 47 -183 17 -253 -25
-57 -92 -125 -145 -148 -44 -18 -138 -18 -174 1 l-28 14 -7 -46 c-24 -178
-219 -293 -376 -222 -83 37 -123 89 -317 414 -207 347 -222 369 -263 390 -74
38 -185 4 -228 -70 -33 -58 -26 -134 32 -345 93 -343 175 -569 281 -782 72
-143 129 -227 259 -378 113 -132 114 -133 125 -267 8 -98 19 -107 161 -130 82
-13 179 -16 445 -17 405 -1 490 10 558 72 27 25 27 27 27 150 l0 124 75 80
c137 146 218 287 330 578 179 467 273 638 467 848 106 114 121 137 122 186 2
102 -129 156 -294 122 -167 -35 -326 -148 -451 -321 -93 -128 -97 -132 -188
-207 -198 -165 -333 -316 -410 -459 -51 -96 -68 -157 -77 -274 l-7 -95 -37 0
c-36 0 -39 2 -45 38 -8 51 9 183 35 256 64 187 242 409 480 600 47 37 89 75
94 83 28 50 -56 240 -305 688 -280 505 -467 802 -536 849 -46 32 -120 43 -163
25z"/>
		<path d="M1370 2578 c-117 -32 -192 -166 -145 -259 30 -58 367 -623 387 -649
35 -45 97 -80 143 -80 62 0 128 45 150 104 28 72 16 128 -53 259 -63 120 -299
520 -334 568 -18 24 -94 72 -109 68 -2 -1 -20 -5 -39 -11z"/>
		<path d="M903 2310 c-88 -51 -130 -140 -100 -213 29 -68 396 -675 429 -707 60
-61 130 -75 203 -41 107 48 142 168 84 284 -55 107 -348 594 -383 633 -72 83
-142 96 -233 44z"/>
	</g>
</svg>