<?xml version="1.0" standalone="no"?>
<!DOCTYPE svg PUBLIC "-//W3C//DTD SVG 20010904//EN"
 "http://www.w3.org/TR/2001/REC-SVG-20010904/DTD/svg10.dtd">
<svg version="1.0" xmlns="http://www.w3.org/2000/svg"
 width="1024.000000pt" height="1024.000000pt" viewBox="0 0 1024.000000 1024.000000"
 preserveAspectRatio="xMidYMid meet">

<g transform="translate(0.000000,1024.000000) scale(0.100000,-0.100000)"
fill="#000000" stroke="none">
<path d="M1965 7072 c-79 -37 -131 -131 -123 -222 3 -30 22 -85 50 -142 53
-110 248 -457 448 -798 79 -135 159 -279 178 -320 44 -95 54 -187 27 -257 -50
-129 -199 -205 -312 -158 -45 19 -43 20 -43 -13 0 -85 -67 -185 -154 -229 -40
-21 -66 -27 -121 -27 -149 -1 -185 37 -430 448 -105 175 -202 331 -216 346
-30 33 -97 54 -142 45 -85 -18 -147 -94 -147 -180 0 -84 138 -564 227 -790 64
-163 165 -362 227 -449 24 -34 89 -113 143 -177 55 -64 103 -125 107 -135 4
-10 10 -57 13 -104 3 -47 11 -94 18 -106 31 -49 195 -68 600 -68 388 -1 494
13 554 73 19 19 21 33 21 145 l0 125 80 86 c144 155 211 276 338 605 170 441
268 615 463 825 118 128 137 171 104 235 -40 77 -203 100 -354 51 -142 -47
-306 -184 -415 -349 -36 -54 -81 -102 -175 -182 -324 -277 -461 -487 -461
-711 0 -85 -10 -103 -57 -97 l-28 3 0 105 c0 84 5 120 24 179 26 78 94 198
163 290 60 77 217 232 326 320 50 41 94 82 97 93 11 33 -25 127 -119 311 -283
554 -652 1168 -731 1217 -51 32 -127 37 -180 12z"/>
<path d="M1879 6222 c-84 -43 -132 -136 -112 -212 13 -51 385 -669 425 -707
59 -56 121 -67 188 -33 64 33 85 72 85 160 -1 67 -5 83 -38 148 -64 125 -338
586 -366 615 -58 63 -103 70 -182 29z"/>
<path d="M1497 5996 c-90 -33 -149 -106 -150 -185 -1 -45 11 -69 197 -382 109
-184 213 -349 230 -368 36 -38 98 -70 139 -71 38 0 96 26 130 58 61 58 74 151
33 237 -27 58 -301 523 -358 608 -65 96 -142 132 -221 103z"/>
<path d="M8252 5313 l3 -598 105 0 105 0 3 598 2 597 -110 0 -110 0 2 -597z"/>
<path d="M8660 5310 l0 -601 103 3 102 3 3 141 3 142 40 46 41 47 110 -191
110 -191 117 3 c96 3 116 6 115 18 -1 8 -67 120 -148 247 -80 128 -149 238
-151 245 -3 8 59 82 140 171 81 86 144 161 140 167 -4 6 -54 10 -121 10 l-115
0 -30 -32 c-16 -18 -78 -88 -137 -155 l-107 -122 -5 322 -5 322 -102 3 -103 3
0 -601z"/>
<path d="M4094 5877 c-3 -8 -4 -49 -2 -93 l3 -79 167 -3 168 -2 2 -493 3 -492
110 0 110 0 3 492 2 493 168 2 167 3 0 90 0 90 -448 3 c-368 2 -448 0 -453
-11z"/>
<path d="M6490 5795 l0 -95 165 0 165 0 2 -492 3 -493 110 0 110 0 3 493 2
492 165 0 165 0 0 95 0 95 -445 0 -445 0 0 -95z"/>
<path d="M5200 5570 c-109 -23 -217 -108 -252 -199 -20 -49 -25 -46 94 -64 87
-13 108 -10 108 18 0 6 14 24 30 40 27 26 39 30 103 33 59 2 78 -1 105 -18 36
-22 62 -72 62 -120 0 -29 -1 -30 -47 -30 -76 0 -223 -19 -283 -36 -123 -35
-196 -111 -207 -217 -11 -110 45 -205 152 -257 41 -20 66 -24 140 -24 105 -1
166 18 211 65 l29 31 5 -39 5 -38 100 0 100 0 3 215 c4 286 -9 432 -42 499
-47 91 -142 140 -286 146 -47 2 -105 0 -130 -5z m250 -504 c0 -35 -20 -87 -47
-124 -34 -46 -91 -72 -157 -72 -72 0 -117 35 -119 92 -2 82 84 122 271 127 48
1 52 -1 52 -23z"/>
<path d="M7595 5566 c-111 -29 -177 -76 -225 -159 -45 -78 -42 -82 48 -95 112
-18 117 -17 142 23 30 49 66 65 146 65 64 0 68 -1 105 -39 34 -33 39 -45 39
-83 l0 -45 -102 -7 c-304 -20 -428 -99 -428 -273 1 -112 50 -187 155 -235 40
-18 68 -22 140 -22 99 0 162 20 209 67 l25 25 3 -36 3 -37 100 0 100 0 3 280
c2 172 -2 306 -8 347 -14 83 -54 148 -112 182 -87 51 -236 69 -343 42z m255
-509 c0 -46 -38 -115 -83 -151 -32 -26 -49 -31 -107 -34 -66 -4 -71 -3 -100
26 -43 43 -43 100 1 136 17 14 41 29 55 32 43 11 128 21 182 23 l52 1 0 -33z"/>
<path d="M5736 5561 c-4 -5 199 -583 283 -808 l20 -52 -32 -63 c-37 -73 -60
-88 -138 -88 l-57 0 -12 -80 c-7 -45 -10 -83 -7 -86 10 -11 82 -24 130 -24
124 0 199 50 266 179 22 43 99 238 170 432 71 195 147 403 170 463 52 138 52
139 -77 134 l-94 -3 -84 -240 c-47 -132 -92 -264 -101 -294 l-15 -54 -100 284
c-55 156 -107 290 -116 297 -18 13 -198 16 -206 3z"/>
</g>
</svg>
